<svg xmlns="http://www.w3.org/2000/svg" width="36" height="36" viewBox="0 0 36 36">
    <g>
        <g fill="none">
            <path d="M34.857 15.341a7.727 7.727 0 0 0-12.692-.728l-.058-.075-.059.075a7.539 7.539 0 0 0-6.737-2.95 7.473 7.473 0 0 0-5.954 3.678c-2.016 3.273-1.564 7.79 1.155 11.51.745 1.019 1.636 2.205 2.593 3.276a42.784 42.784 0 0 0 8.295 7.095l.649.425.059-.039.058.039.65-.425a42.822 42.822 0 0 0 8.294-7.095c.958-1.071 1.848-2.257 2.592-3.276 2.719-3.72 3.172-8.237 1.155-11.51z" transform="translate(-4.106 -6.646)"/>
            <path d="M15.878 13.646c-.149 0-.301.005-.456.014-1.766.1-3.356 1.094-4.364 2.73-1.588 2.578-1.17 6.221 1.067 9.28.717.981 1.571 2.12 2.468 3.122 2.128 2.375 4.7 4.603 7.462 6.465l.064-.042.05.034c2.76-1.864 5.328-4.088 7.45-6.455.892-.999 1.748-2.14 2.468-3.123 2.237-3.06 2.656-6.703 1.067-9.28-1.008-1.637-2.599-2.632-4.366-2.731-.153-.01-.306-.014-.454-.014-2.425 0-3.825 1.182-4.573 2.172l-1.586 2.1-.07-.091-.069.09-1.585-2.099c-.748-.99-2.15-2.172-4.573-2.172m12.456-2c.185 0 .375.006.568.017 2.427.136 4.599 1.477 5.955 3.678 2.017 3.273 1.564 7.79-1.156 11.51-.745 1.019-1.635 2.205-2.592 3.276-2.353 2.626-5.222 5.079-8.294 7.095l-.65.424-.059-.038-.059.038-.65-.424c-3.073-2.016-5.94-4.47-8.293-7.095-.958-1.07-1.849-2.257-2.593-3.276-2.72-3.72-3.172-8.237-1.156-11.51 1.356-2.2 3.528-3.542 5.954-3.678.194-.011.383-.017.569-.017 3.046 0 5.023 1.45 6.169 2.967l.06-.075c.018.025.039.05.058.075 1.145-1.517 3.124-2.967 6.169-2.967z" transform="translate(-4.106 -6.646)" style="
    fill: #b3b3b3;
"/>
        </g>
    </g>
</svg>
