<svg xmlns="http://www.w3.org/2000/svg" width="68.863" height="27" viewBox="0 0 68.863 27">
    <defs>
        <style>
            .cls-1{fill:#00c73c}
            .cls-2{fill:#5c5c5c}
        </style>
    </defs>
    <g id="그룹_3053" transform="translate(-4280.209 -928)">
        <g id="그룹_3052" transform="translate(4314.904 933.669)">
            <path id="패스_326" d="M401.33 172h5.54a6.99 6.99 0 0 1 2.276.334 4.422 4.422 0 0 1 1.6.925 3.715 3.715 0 0 1 .945 1.41 4.926 4.926 0 0 1 .311 1.764v.452a4.715 4.715 0 0 1-.333 1.775 4.156 4.156 0 0 1-.976 1.452 4.657 4.657 0 0 1-1.6.99 6.191 6.191 0 0 1-2.221.366h-3.412v6.046h-2.13zm2.13 1.851v5.767h3.056q3.355 0 3.356-2.776v-.387a2.351 2.351 0 0 0-.806-1.969 3.672 3.672 0 0 0-2.313-.635z" class="cls-2" transform="translate(-401.33 -172)"/>
            <path id="패스_327" d="M449.474 196.9a4.242 4.242 0 0 1-2.83-.882 3.013 3.013 0 0 1-1.043-2.432V193a3.206 3.206 0 0 1 1.011-2.453 4.69 4.69 0 0 1 3.271-.947h2.99v-.689a2.391 2.391 0 0 0-.57-1.754 2.559 2.559 0 0 0-1.861-.57 4.6 4.6 0 0 0-1.8.323 9.94 9.94 0 0 0-1.582.861l-1.033-1.549a9.926 9.926 0 0 1 1.937-1.044 6.543 6.543 0 0 1 2.5-.441 6.234 6.234 0 0 1 1.808.247 4.055 4.055 0 0 1 1.409.732 3.408 3.408 0 0 1 .925 1.183 3.633 3.633 0 0 1 .334 1.582v8.241h-2V195.3h-.022a2.257 2.257 0 0 1-.463.592 3.36 3.36 0 0 1-.635.463 4.412 4.412 0 0 1-1.022.4 5.418 5.418 0 0 1-1.323.14m3.4-5.53h-2.948a2.606 2.606 0 0 0-1.754.473 1.674 1.674 0 0 0-.527 1.313v.3a1.372 1.372 0 0 0 .6 1.248 2.606 2.606 0 0 0 1.442.388 4.411 4.411 0 0 0 1.345-.183 3.369 3.369 0 0 0 1.043-.549 1.862 1.862 0 0 0 .613-.742 2.744 2.744 0 0 0 .183-1.086z" class="cls-2" transform="translate(-433.337 -181.21)"/>
            <path id="패스_328" d="M491.3 194.918l3.1-9.4h2.195l-6.111 16.633-1.893-.667 1.528-4.024-4.282-11.942h2.259l3.12 9.4z" class="cls-2" transform="translate(-462.424 -181.771)"/>
        </g>
        <path id="사각형_1450" d="M0 0H27V27H0z" class="cls-1" transform="translate(4280.209 928)"/>
        <path id="패스_329" fill="#ffffff" d="M308.778 190l-4.379-6.434V190h-4.566v-12.431h4.63l4.379 6.431v-6.432h4.565V190z" transform="translate(3986.955 757.643)"/>
    </g>
</svg>
